# xmcd CD database file generated by OrangeCD 6.4
#
# Track frame offsets:
#	150
#	21792
#	38344
#	47954
#	65371
#	76448
#	91474
#	112458
#	133523
#	150129
#	165725
#	181498
#	195657
#	218836
#	242847
#	261656
#	277723
#
# Disc length: 3935 seconds
#
# Revision: 0
# Processed by: cddbd v1.5.2PL0 Copyright (c) Steve Scherf et al.
# Submitted via: OrangeCD 6.4
#
DISCID=ea0f5d11
DTITLE=Old 97's - Drag It Up [Deluxe Edition]
DYEAR=2004
DGENRE=
TTITLE0=Won't Be Home
TTITLE1=Moonlight
TTITLE2=Borrowed Bride
TTITLE3=Smokers
TTITLE4=Coahuila
TTITLE5=Blinding Sheets Of Rain
TTITLE6=Valium Waltz
TTITLE7=In The Satellite Rides A Star
TTITLE8=The New Kid
TTITLE9=Bloomington
TTITLE10=Adelaide
TTITLE11=Friends Forever
TTITLE12=No Mother
TTITLE13=Won't Be Home (Live At The Troubadour)
TTITLE14=Smokers (Live At The Troubadour)
TTITLE15=Friends Forever (Live At The Troubadour)
TTITLE16=The New Kids (Live At The Troubadour)
EXTD=
EXTT0=
EXTT1=
EXTT2=
EXTT3=
EXTT4=
EXTT5=
EXTT6=
EXTT7=
EXTT8=
EXTT9=
EXTT10=
EXTT11=
EXTT12=
EXTT13=
EXTT14=
EXTT15=
EXTT16=
PLAYORDER=
